<svg version="1.1" xmlns="http://www.w3.org/2000/svg" xmlns:xlink="http://www.w3.org/1999/xlink" width="139.37677" height="132.29845" viewBox="0,0,139.37677,132.29845"><defs><linearGradient x1="170.31173" y1="213.60671" x2="309.68792" y2="213.60671" gradientUnits="userSpaceOnUse" id="color-1"><stop offset="0" stop-color="#27aae1"/><stop offset="1" stop-color="#115489"/></linearGradient><linearGradient x1="175.54115" y1="213.60671" x2="304.45676" y2="213.60671" gradientUnits="userSpaceOnUse" id="color-2"><stop offset="0" stop-color="#2f7eba"/><stop offset="0.506" stop-color="#3f9dd6"/><stop offset="1" stop-color="#3e97d1"/></linearGradient></defs><g transform="translate(-170.31161,-111.67301)"><g data-paper-data="{&quot;isPaintingLayer&quot;:true}" fill-rule="nonzero" stroke="none" stroke-width="1" stroke-linecap="butt" stroke-linejoin="miter" stroke-miterlimit="10" stroke-dasharray="" stroke-dashoffset="0" style="mix-blend-mode: normal"><g><path d="M309.68839,213.6059c0,16.74379 -13.62292,30.36555 -30.36555,30.36555h-78.64683c-16.74263,0 -30.36439,-13.6206 -30.36439,-30.36555c0,-16.74263 13.6206,-30.36439 30.36439,-30.36439h78.64683c16.74263,0 30.36555,13.62176 30.36555,30.36439z" fill="url(#color-1)"/><path d="M304.45711,213.6059c0,13.88193 -11.25235,25.13544 -25.13428,25.13544h-78.64683c-13.88193,0 -25.13544,-11.25351 -25.13544,-25.13544v0c0,-13.88076 11.25351,-25.13428 25.13544,-25.13428h78.64683c13.88193,0 25.13428,11.25351 25.13428,25.13428z" fill="url(#color-2)"/></g><text transform="translate(197.10558,136.93511) scale(0.58074,0.58074)" font-size="40" xml:space="preserve" fill="#000000" fill-rule="nonzero" stroke="none" stroke-width="1" stroke-linecap="butt" stroke-linejoin="miter" stroke-miterlimit="10" stroke-dasharray="" stroke-dashoffset="0" font-family="Sans Serif" font-weight="normal" text-anchor="start" style="mix-blend-mode: normal"><tspan x="0" dy="0">Pinball </tspan><tspan x="0" dy="48px">Game</tspan></text><text transform="translate(200.03516,225.47201) scale(0.97653,0.97653)" font-size="40" xml:space="preserve" fill="#000000" fill-rule="nonzero" stroke="none" stroke-width="1" stroke-linecap="butt" stroke-linejoin="miter" stroke-miterlimit="10" stroke-dasharray="" stroke-dashoffset="0" font-family="Sans Serif" font-weight="normal" text-anchor="start" style="mix-blend-mode: normal"><tspan x="0" dy="0">Play</tspan></text></g></g></svg>